<?xml version="1.0" encoding="UTF-8"?>
<svg width="170px" height="138px" viewBox="0 0 170 138" version="1.1" xmlns="http://www.w3.org/2000/svg" xmlns:xlink="http://www.w3.org/1999/xlink">
    <title>atom / logo</title>
    <g id="0.0-Home" stroke="none" stroke-width="1" fill="none" fill-rule="evenodd">
        <g transform="translate(-146.000000, 0.000000)" id="organism-/-header-nav-">
            <g id="logo" transform="translate(146.000000, 0.000000)">
                <rect id="background-logo" fill="#6A98A6" x="0" y="0" width="170" height="138"></rect>
                <g id="bahai-world-logo" transform="translate(20.000000, 24.000000)" fill="#FBFCFC" fill-rule="nonzero">
                    <path d="M47.0894049,64.9167736 C53.6004323,64.9167736 59.0824442,69.0552331 59.0824442,76.9073835 C59.0824442,84.6867164 53.4213411,89.3197279 46.4155364,89.3197279 C39.4097316,89.3197279 34.3405401,84.9203391 34.3405401,77.2957433 C34.3405401,69.6559772 40.2475141,64.9167736 47.0894049,64.9167736 Z M8.92476745,65.432564 L8.92476745,66.2123177 L7.82897216,66.3185099 C7.26134413,66.3882933 6.0593083,66.4944854 6.0593083,67.2014217 C6.2113996,67.9336908 6.41425183,68.6545019 6.6663971,69.3586392 L11.2650948,83.922133 L11.3379454,83.922133 L17.2449195,66.4186339 C17.5664034,66.2397473 17.9119239,66.1079371 18.2708995,66.02724 L24.8881675,83.9282011 L24.9579827,83.9282011 C25.6318513,81.7376089 29.6750627,68.9338706 29.6750627,67.2833413 C29.6750627,66.6765291 29.0376194,66.5430304 28.4001762,66.4368383 L26.8065681,66.224454 L26.8065681,65.432564 L34.2282287,65.432564 L34.2282287,66.2123177 L33.3175955,66.424702 C32.924683,66.505984 32.5596365,66.6879014 32.2582255,66.9526287 C31.6511367,67.5594409 29.2834904,75.0535721 28.788713,76.5736368 L26.7367529,82.9451653 C25.8261197,85.8093191 25.1461802,88.1789209 24.9336991,88.8160737 C24.5405796,89.0534421 24.1092104,89.2207782 23.6588127,89.3106257 L17.1143954,71.6645257 C16.2037622,74.0675022 11.6505962,86.9076492 11.0435074,88.8160737 C10.6946508,89.0640458 10.2958006,89.2328327 9.87486142,89.3106257 L3.30616059,69.5710235 C2.81138322,68.157151 2.24375519,66.424702 1.1479599,66.3185099 L0.121979826,66.2123177 L0.121979826,65.432564 L8.92476745,65.432564 Z M117.132275,65.432564 C124.705708,65.432564 129.237626,69.4071842 129.237626,76.2550603 C129.237626,85.4512999 122.407877,88.7735969 115.013535,88.7735969 L105.527773,88.7735969 L105.527773,87.9968772 L106.802659,87.8906851 L106.966211,87.8725856 C108.180751,87.7265333 108.180751,87.3941938 108.180751,83.2576736 L108.179241,69.7445275 C108.166104,66.6005963 108.03868,66.4436884 106.802659,66.3185099 L105.527773,66.2123177 L105.527773,65.432564 L117.132275,65.432564 Z M71.4913393,65.432564 C74.8515758,65.432564 79.5929394,65.927116 79.5929394,71.3034724 C79.5929394,74.5923948 76.6546296,76.537228 74.70891,77.4565486 L76.09592,80.0793863 C76.4892225,80.8178662 76.9063229,81.5905945 77.292826,82.2798984 L77.3649235,82.4081365 C78.8492556,85.059906 80.4003675,87.1473401 81.2897526,87.641892 C81.8412006,87.9046595 82.4492372,88.0266284 83.0594164,87.9968772 L83.0594164,88.7735969 L80.3275168,88.7735969 C77.9902249,88.7735969 76.3632269,87.1837488 75.3008215,85.2389156 L73.8863046,82.5082605 L73.7598386,82.269101 C72.899938,80.6528475 72.1317474,79.4136592 71.6947141,79.0433626 C71.1724963,78.6190795 70.3830817,78.5851368 69.6810199,78.5824214 L68.1918117,78.5821853 L68.193285,84.4585125 C68.2061033,87.6019694 68.3304407,87.7567172 69.5365134,87.8846169 L70.8083644,87.9908091 L70.8083644,88.7675288 L62.2544832,88.7675288 L62.2544832,87.9968772 L63.5293697,87.8906851 L63.7004069,87.8717268 C64.7870054,87.7401706 64.8978942,87.4533147 64.9092106,84.4070415 L64.9093253,69.8340228 C64.8981216,66.6035504 64.7797621,66.4448656 63.5293697,66.3185099 L62.2544832,66.2123177 L62.2544832,65.432564 L71.4913393,65.432564 Z M94.5242884,65.432564 L94.5242884,66.2123177 L93.2494019,66.3185099 C91.9631831,66.4487722 91.8774352,66.6133937 91.8717187,70.1425597 L91.8713104,87.3597244 C93.1426007,87.6059942 94.4318922,87.748056 95.7263243,87.7844929 C100.962465,87.7844929 101.317612,85.6606501 102.024871,82.7631216 L102.908185,82.9026884 C102.801944,85.1660981 102.343592,86.8287636 101.742574,88.7735969 L85.9248756,88.7735969 L85.9248756,87.9968772 L87.199762,87.8906851 C88.4888139,87.7575909 88.5747507,87.5954237 88.5804798,84.0665975 L88.5804798,70.1425597 C88.5747507,66.6133937 88.4888139,66.4487722 87.199762,66.3185099 L85.9248756,66.2123177 L85.9248756,65.432564 L94.5242884,65.432564 Z M46.488387,66.0939893 C41.1793955,66.0939893 38.0680354,70.5146165 38.0680354,76.634318 C38.0559236,83.822009 41.7348817,88.136444 47.0772632,88.136444 L47.0894049,88.1516143 C53.1026195,88.1516143 55.3670607,82.9937103 55.3670607,77.8358062 C55.3670607,71.1608716 52.0432496,66.0939893 46.488387,66.0939893 Z M115.201733,66.6037116 C113.95654,66.6336756 112.715006,66.7512838 111.48635,66.9556627 L111.471172,87.1109313 C112.797857,87.4000119 114.148148,87.5675789 115.505277,87.6115514 C121.943454,87.6115514 125.522243,84.0374273 125.522243,77.1410062 C125.522243,69.7166584 121.488138,66.6037116 115.201733,66.6037116 Z M70.3925086,66.6006776 C69.6544548,66.6222412 68.9203474,66.7167577 68.200918,66.8828453 L68.200918,77.5991494 L70.2164528,77.5991494 C73.1881525,77.5991494 75.8775559,76.0062673 75.8775559,72.0104087 C75.8775559,67.8749833 73.1456563,66.6006776 70.3925086,66.6006776 Z M59.6045406,27.9801125 L59.6045406,28.8448199 L58.1930591,28.9601142 C56.7701947,29.1080247 56.6812657,29.2906017 56.6757076,33.2528294 L56.6753371,39.6733844 L70.6383795,39.6733844 L70.638009,33.2619315 C70.6324509,29.2997039 70.5435219,29.1171269 69.1206575,28.9692164 L67.7091761,28.8539221 L67.7091761,27.9892146 L77.2404703,27.9892146 L77.2404703,28.8539221 L75.8289888,28.9692164 C74.4061244,29.1171269 74.3171954,29.2997039 74.3116373,33.2619315 L74.3116373,48.6036413 C74.3171954,52.5683578 74.4061244,52.750757 75.8289888,52.8958231 L77.2404703,53.0141515 L77.2404703,53.8758249 L67.7091761,53.8758249 L67.7091761,53.0141515 L69.1206575,52.8958231 C70.5435219,52.750757 70.6324509,52.5683578 70.638009,48.6036413 L70.6383795,40.7808167 L56.6753371,40.7808167 L56.6757076,48.6036413 C56.6812657,52.5683578 56.7701947,52.750757 58.1930591,52.8958231 L59.6045406,53.0141515 L59.6045406,53.8758249 L50.0732464,53.8758249 L50.0732464,53.0050493 L51.4847279,52.8867209 C52.9075922,52.7416549 52.9965213,52.5592556 53.0020793,48.5945391 L53.0020793,33.2528294 C52.9965213,29.2906017 52.9075922,29.1080247 51.4847279,28.9601142 L50.0732464,28.8448199 L50.0732464,27.9801125 L59.6045406,27.9801125 Z M124.250392,27.9801125 L124.250392,28.8448199 L122.83891,28.9601142 C121.416046,29.1080247 121.327117,29.2906017 121.321559,33.2528294 L121.321559,48.5945391 C121.327117,52.5592556 121.416046,52.7416549 122.83891,52.8867209 L124.250392,53.0050493 L124.250392,53.8667227 L114.719097,53.8667227 L114.719097,53.0050493 L116.130579,52.8867209 C117.585062,52.7384312 117.645666,52.5511306 117.648191,48.3245801 L117.648191,33.5226184 C117.645666,29.2987334 117.585062,29.1113116 116.130579,28.9601142 L114.719097,28.8448199 L114.719097,27.9801125 L124.250392,27.9801125 Z M93.653116,27.4006068 L102.401266,50.1044868 C102.990142,51.6700624 103.381714,52.5742126 104.401623,52.7683925 L105.970948,53.0050493 L105.970948,53.8667227 L96.2423497,53.8667227 L96.2423497,53.0050493 L98.0089781,52.7016432 C98.7132012,52.5833148 99.2231557,52.3982371 99.2231557,51.9552641 C99.1825163,51.6719447 99.1039005,51.3953837 98.9894266,51.1330335 L96.2423497,43.720822 C94.8112258,43.4508578 93.3580516,43.3147483 91.9016648,43.3142578 C90.5200645,43.3287206 89.1421468,43.4596494 87.7825673,43.7056517 L85.7822097,49.1669619 C85.3117159,50.4200291 84.9990651,51.4789165 84.9990651,51.7914248 C84.9990651,52.5378039 85.5059843,52.6561323 85.9400528,52.7016432 L88.2925219,53.0050493 L88.2925219,53.8667227 L80.0421851,53.8667227 L80.0421851,53.0050493 L80.7889043,52.8867209 C82.2793073,52.6530982 82.4735757,52.2192274 83.4175988,49.9467156 L91.5768723,30.1069894 C91.8804167,29.3242016 92.2021738,28.5383797 92.5178599,27.7950347 L93.653116,27.4006068 Z M33.9095071,27.4006068 L42.6576567,50.1044868 C43.2465328,51.6700624 43.6381051,52.5742126 44.6580143,52.7683925 L46.2273388,53.0050493 L46.2273388,53.8667227 L36.4987408,53.8667227 L36.4987408,53.0050493 L38.2653692,52.7016432 C38.9695922,52.5833148 39.4795468,52.3982371 39.4795468,51.9552641 C39.4389074,51.6719447 39.3602915,51.3953837 39.2458176,51.1330335 L36.4987408,43.720822 C35.0636311,43.4501063 33.606357,43.3139935 32.1459141,43.3142578 C30.7643062,43.3285763 29.3863764,43.4595063 28.0268166,43.7056517 L26.026459,49.1669619 C25.5559652,50.4200291 25.240279,51.4789165 25.240279,51.7914248 C25.240279,52.5378039 25.7502336,52.6561323 26.1843021,52.7016432 L28.5367712,53.0050493 L28.5367712,53.8667227 L20.2985761,53.8667227 L20.2985761,53.0050493 L21.0452954,52.8867209 C22.5356984,52.6530982 22.7299668,52.2192274 23.6709544,49.9467156 L31.8302279,30.1069894 C32.1337723,29.3242016 32.4585648,28.5383797 32.774251,27.7950347 L33.9095071,27.4006068 Z M11.1588542,27.9801125 C17.1204663,27.9801125 18.8476339,30.4498383 18.8476339,33.3534349 C18.8476339,37.5465074 15.0017263,39.3517739 13.5113233,39.703725 L13.5113233,39.7826106 C16.6499724,40.1345617 20.4169585,42.134008 20.4169585,46.4878858 C20.4169585,51.700403 16.0216355,53.8576205 10.5305173,53.8576205 L0.64711164,53.8576205 L0.64711164,53.0050493 L2.0585931,52.8867209 C3.51307669,52.7384312 3.57368017,52.5511306 3.57620532,48.3245801 L3.57620532,33.5224216 C3.57368017,29.2955834 3.51307669,29.0735123 2.0585931,28.9601142 L0.64711164,28.8448199 L0.64711164,27.9801125 L11.1588542,27.9801125 Z M8.91869656,40.5745005 L7.23706058,40.5745005 L7.23706058,52.2586702 C8.42357051,52.5877509 9.64828806,52.7591332 10.8795934,52.7683925 C14.4887363,52.7683925 16.2948255,50.6900606 16.2948255,47.2008902 C16.2948255,44.7311644 14.9986909,40.5745005 8.91869656,40.5745005 Z M32.2642964,32.7344864 L28.5367712,42.2219958 C29.7145234,42.1431102 30.928701,42.0278158 32.1064533,42.0278158 C33.3639315,42.0138063 34.6210505,42.0786603 35.8704039,42.2219958 L32.2642964,32.7344864 Z M92.0079053,32.7344864 L88.2803801,42.2219958 C89.4581324,42.1431102 90.67231,42.0278158 91.8500623,42.0278158 C93.1075414,42.0137585 94.3646634,42.0786126 95.6140128,42.2219958 L92.0079053,32.7344864 Z M9.55006891,29.0784426 C8.77501746,29.0819604 8.00151041,29.1479119 7.23706058,29.2756566 L7.23706058,39.4792044 L8.80638513,39.4792044 C11.9419988,39.4792044 15.1990302,38.7328254 15.1990302,34.0178943 C15.1990302,30.6804269 12.961908,29.0784426 9.55006891,29.0784426 Z M111.465101,25.0492093 C111.463785,25.1517039 111.477072,25.253864 111.504562,25.3526155 C111.504562,27.0789963 108.286992,32.8831554 107.579733,34.3334366 L105.500454,35.046441 C106.411087,32.3825353 108.089688,27.4794924 108.089688,25.8319971 C109.166465,25.3947132 110.305694,25.1305161 111.465101,25.0492093 Z M98.6373151,19.2056074 C99.2326791,19.8722029 99.6741334,20.6614868 99.9304142,21.5175621 C98.7526619,22.10617 93.2220829,25.3192408 92.2416345,25.9078487 L91.7711407,24.9703237 C94.4787568,22.3822695 97.3806412,20.2675289 98.6373151,19.2056074 Z M124.644999,19.2056074 C125.240363,19.8722029 125.681818,20.6614868 125.938098,21.5175621 C124.760346,22.10617 119.229767,25.3192408 118.249319,25.9078487 L117.778825,24.9703237 C120.486441,22.3822695 123.388325,20.2675289 124.644999,19.2056074 Z M84.6742726,-2.91322522e-13 C84.8629332,0.929090873 84.9645541,1.87373469 84.977817,2.82167692 C84.977817,3.42848916 84.9262145,3.64694157 84.9262145,3.88663241 L84.2857358,3.99585861 C83.7129138,1.20721924 83.6479478,0.762355449 80.1324629,0.743960831 L77.6654324,0.743344996 L77.6654324,8.07060281 L80.0361142,8.07060281 C82.1153933,8.07060281 82.5949935,8.04329626 82.7680138,6.95103423 L82.8985379,6.04081586 L83.5936546,6.04081586 L83.5936546,10.8498029 L82.8863961,10.8498029 L82.755872,9.93958452 C82.6064848,8.9253412 82.1822815,8.82935031 80.4479346,8.82081204 L77.6654324,8.82001593 L77.6654324,16.4901227 C78.6204621,16.697904 79.593215,16.8137278 80.5703523,16.8360056 C84.8199739,16.8360056 85.0719158,15.2400894 85.6061539,13.0555654 L86.2739516,13.1617575 C86.183086,14.6684658 85.8869271,16.155731 85.3936729,17.5823847 L73.1881525,17.5823847 L73.1881525,16.9937768 L74.1473528,16.9148912 C75.1278012,16.8145987 75.1822706,16.6899493 75.1852967,13.9389787 L75.1852967,3.64037193 C75.1822706,0.889401331 75.1278012,0.764751983 74.1473528,0.664459404 L73.1881525,0.585573813 L73.1881525,-2.91322522e-13 L84.6742726,-2.91322522e-13 Z M50.9929859,-2.61124455e-13 C51.1791414,1.01024604 51.2806748,2.03425131 51.2965303,3.06136776 C51.2965303,3.40725074 51.2418923,4.1293573 51.2418923,4.23554945 L50.6044491,4.23554945 C50.0254052,1.20808402 49.9489094,0.76190066 46.4277674,0.743932133 L44.8006802,0.743344996 L44.800916,13.9258381 C44.8050437,16.6895529 44.8814066,16.8144392 46.2941186,16.9148912 L47.2533189,16.9937768 L47.2533189,17.5793506 L39.8711191,17.5793506 L39.8711191,16.9937768 L40.8576384,16.9148912 C42.2445081,16.8144392 42.3194741,16.6895529 42.3235263,13.9258381 L42.3237578,0.743344996 L40.9365599,0.743344996 C37.1786803,0.743344996 37.1270777,1.14384108 36.541237,4.23554945 L35.9007583,4.23554945 C35.9007583,4.1293573 35.8461203,3.40725074 35.8461203,3.06136776 C35.8619759,2.03425131 35.9635093,1.01024604 36.1496647,-2.61124455e-13 L50.9929859,-2.61124455e-13 Z M58.5815959,-2.62900812e-13 L58.5815959,0.585573813 L57.6223956,0.664459404 C56.6680015,0.761802202 56.5884686,0.882090087 56.5818409,3.40438875 L56.5812383,7.93710412 L66.0700363,7.93710412 L66.0700363,4.15362979 C66.0700363,0.90415024 66.0700363,0.770651547 65.0319145,0.664459404 L64.0727142,0.585573813 L64.0727142,-2.62900812e-13 L70.5473162,-2.62900812e-13 L70.5473162,0.585573813 L69.5881159,0.664459404 C68.6365042,0.761802202 68.5572032,0.882090087 68.5505948,3.40438875 L68.5505948,14.1749619 C68.5572032,16.6972606 68.6365042,16.8175484 69.5881159,16.9148912 L70.5473162,16.9937768 L70.5473162,17.5793506 L64.0727142,17.5793506 L64.0727142,16.9937768 L65.0319145,16.9148912 C66.0411996,16.8116489 66.0692353,16.6825959 66.0700141,13.6893641 L66.0700363,8.68348318 L56.5812383,8.68348318 L56.5818409,14.1749619 C56.5884686,16.6972606 56.6680015,16.8175484 57.6223956,16.9148912 L58.5815959,16.9937768 L58.5815959,17.5793506 L52.1039584,17.5793506 L52.1039584,16.9937768 L53.0631587,16.9148912 C54.046474,16.8145987 54.1011026,16.6899493 54.1041375,13.9389787 L54.1041375,3.64037193 C54.1011026,0.889401331 54.046474,0.764751983 53.0631587,0.664459404 L52.1039584,0.585573813 L52.1039584,-2.62900812e-13 L58.5815959,-2.62900812e-13 Z" id="Combined-Shape"></path>
                </g>
            </g>
        </g>
    </g>
</svg>